<?xml version="1.0" encoding="UTF-8" standalone="no"?>
<!-- Created with Inkscape (http://www.inkscape.org/) -->

<svg
   version="1.1"
   id="svg1"
   width="1000"
   height="1000"
   viewBox="0 0 1000 1000"
   sodipodi:docname="shield-only.svg"
   inkscape:version="1.4.2 (f4327f4, 2025-05-13)"
   xmlns:inkscape="http://www.inkscape.org/namespaces/inkscape"
   xmlns:sodipodi="http://sodipodi.sourceforge.net/DTD/sodipodi-0.dtd"
   xmlns:xlink="http://www.w3.org/1999/xlink"
   xmlns="http://www.w3.org/2000/svg"
   xmlns:svg="http://www.w3.org/2000/svg">
  <defs
     id="defs1">
    <linearGradient
       id="linearGradient35"
       inkscape:collect="always">
      <stop
         style="stop-color:#371eff;stop-opacity:1;"
         offset="0"
         id="stop35" />
      <stop
         style="stop-color:#2400f0;stop-opacity:0;"
         offset="1"
         id="stop36" />
    </linearGradient>
    <linearGradient
       id="linearGradient30"
       inkscape:collect="always">
      <stop
         style="stop-color:#c269ff;stop-opacity:1;"
         offset="0"
         id="stop30" />
      <stop
         style="stop-color:#c269ff;stop-opacity:0;"
         offset="1"
         id="stop31" />
    </linearGradient>
    <linearGradient
       id="linearGradient27"
       inkscape:collect="always">
      <stop
         style="stop-color:#56deff;stop-opacity:1;"
         offset="0"
         id="stop28" />
      <stop
         style="stop-color:#a3f8ff;stop-opacity:0;"
         offset="1"
         id="stop29" />
    </linearGradient>
    <linearGradient
       id="linearGradient25"
       inkscape:collect="always">
      <stop
         style="stop-color:#4bf6ff;stop-opacity:1;"
         offset="0"
         id="stop26" />
      <stop
         style="stop-color:#94fcff;stop-opacity:0;"
         offset="1"
         id="stop27" />
    </linearGradient>
    <linearGradient
       id="linearGradient23"
       inkscape:collect="always">
      <stop
         style="stop-color:#3982fd;stop-opacity:1"
         offset="0"
         id="stop24" />
      <stop
         style="stop-color:#3e83fb;stop-opacity:0;"
         offset="1"
         id="stop25" />
    </linearGradient>
    <linearGradient
       id="linearGradient14"
       inkscape:collect="always">
      <stop
         style="stop-color:#59dffa;stop-opacity:1;"
         offset="0.22772278"
         id="stop14" />
      <stop
         style="stop-color:#f1fefe;stop-opacity:0;"
         offset="1"
         id="stop15" />
    </linearGradient>
    <radialGradient
       inkscape:collect="always"
       xlink:href="#linearGradient14"
       id="radialGradient15"
       cx="-81.705154"
       cy="698.71063"
       fx="-81.705154"
       fy="698.71063"
       r="269.86434"
       gradientTransform="matrix(1.8955646,-1.5204009,1.1113859,1.3856238,-703.3649,-223.81334)"
       gradientUnits="userSpaceOnUse" />
    <radialGradient
       inkscape:collect="always"
       xlink:href="#linearGradient23"
       id="radialGradient19"
       cx="-290.97321"
       cy="350.46207"
       fx="-290.97321"
       fy="350.46207"
       r="269.86434"
       gradientTransform="matrix(0.79640043,1.178146,-0.64666915,0.43714573,682.16527,157.63436)"
       gradientUnits="userSpaceOnUse" />
    <radialGradient
       inkscape:collect="always"
       xlink:href="#linearGradient25"
       id="radialGradient27"
       cx="833.03729"
       cy="151.8419"
       fx="833.03729"
       fy="151.8419"
       r="282.048"
       gradientTransform="matrix(-1.1146584,1.8388719,-1.012057,-0.613474,1915.2619,-1349.8879)"
       gradientUnits="userSpaceOnUse" />
    <radialGradient
       inkscape:collect="always"
       xlink:href="#linearGradient27"
       id="radialGradient29"
       cx="1919.049"
       cy="863.43182"
       fx="1919.049"
       fy="863.43182"
       r="282.048"
       gradientTransform="matrix(0.71536324,-0.81750887,0.89083171,0.77912041,-1846.8383,1806.6948)"
       gradientUnits="userSpaceOnUse" />
    <radialGradient
       inkscape:collect="always"
       xlink:href="#linearGradient30"
       id="radialGradient31"
       cx="1044.2383"
       cy="206.28552"
       fx="1044.2383"
       fy="206.28552"
       r="431.66055"
       gradientTransform="matrix(-0.96471329,1.1537499,-0.72183734,-0.60357191,2078.1424,-1110.4772)"
       gradientUnits="userSpaceOnUse" />
    <radialGradient
       inkscape:collect="always"
       xlink:href="#linearGradient35"
       id="radialGradient36"
       cx="92.941208"
       cy="950.57214"
       fx="92.941208"
       fy="950.57214"
       r="431.66055"
       gradientTransform="matrix(1.8597532,-1.1952105,0.88903178,1.3833894,-924.99536,-200.41328)"
       gradientUnits="userSpaceOnUse" />
    <filter
       style="color-interpolation-filters:sRGB;"
       inkscape:label="Drop Shadow"
       id="filter89"
       x="-0.12508509"
       y="-0.10569318"
       width="1.2501702"
       height="1.2113864">
      <feFlood
         result="flood"
         in="SourceGraphic"
         flood-opacity="0.498039"
         flood-color="rgb(0,0,0)"
         id="feFlood88" />
      <feGaussianBlur
         result="blur"
         in="SourceGraphic"
         stdDeviation="14.700000"
         id="feGaussianBlur88" />
      <feOffset
         result="offset"
         in="blur"
         dx="0.000000"
         dy="0.000000"
         id="feOffset88" />
      <feComposite
         result="comp1"
         operator="in"
         in="flood"
         in2="offset"
         id="feComposite88" />
      <feComposite
         result="fbSourceGraphic"
         operator="over"
         in="SourceGraphic"
         in2="comp1"
         id="feComposite89" />
      <feColorMatrix
         result="fbSourceGraphicAlpha"
         in="fbSourceGraphic"
         values="0 0 0 -1 0 0 0 0 -1 0 0 0 0 -1 0 0 0 0 1 0"
         id="feColorMatrix89" />
      <feFlood
         id="feFlood89"
         result="flood"
         in="fbSourceGraphic"
         flood-opacity="0.498039"
         flood-color="rgb(0,0,0)" />
      <feGaussianBlur
         id="feGaussianBlur89"
         result="blur"
         in="fbSourceGraphic"
         stdDeviation="14.700000" />
      <feOffset
         id="feOffset89"
         result="offset"
         in="blur"
         dx="0.000000"
         dy="0.000000" />
      <feComposite
         id="feComposite90"
         result="comp1"
         operator="in"
         in="flood"
         in2="offset" />
      <feComposite
         id="feComposite91"
         result="comp2"
         operator="over"
         in="fbSourceGraphic"
         in2="comp1" />
    </filter>
    <filter
       style="color-interpolation-filters:sRGB;"
       inkscape:label="Drop Shadow"
       id="filter119"
       x="-0.077638681"
       y="-0.046308951"
       width="1.1198941"
       height="1.0839852">
      <feFlood
         result="flood"
         in="SourceGraphic"
         flood-opacity="0.498039"
         flood-color="rgb(0,0,0)"
         id="feFlood118" />
      <feGaussianBlur
         result="blur"
         in="SourceGraphic"
         stdDeviation="15.200000"
         id="feGaussianBlur118" />
      <feOffset
         result="offset"
         in="blur"
         dx="-30.547112"
         dy="-8.358663"
         id="feOffset118" />
      <feComposite
         result="comp1"
         operator="in"
         in="flood"
         in2="offset"
         id="feComposite118" />
      <feComposite
         result="comp2"
         operator="out"
         in="comp1"
         in2="SourceGraphic"
         id="feComposite119" />
    </filter>
    <filter
       inkscape:menu-tooltip="Transparent plastic with deep colors"
       inkscape:menu="Bevels"
       inkscape:label="Deep Colors Plastic"
       style="color-interpolation-filters:sRGB;"
       id="filter146"
       x="-0.10636488"
       y="-0.089875155"
       width="1.2127298"
       height="1.1797503">
      <feGaussianBlur
         in="SourceGraphic"
         result="result6"
         stdDeviation="10"
         id="feGaussianBlur142" />
      <feComposite
         in2="SourceGraphic"
         in="result6"
         operator="xor"
         id="feComposite142" />
      <feGaussianBlur
         result="result2"
         stdDeviation="9"
         id="feGaussianBlur143" />
      <feComposite
         in2="SourceGraphic"
         operator="atop"
         result="result91"
         id="feComposite143" />
      <feComposite
         result="result4"
         in="result2"
         operator="xor"
         in2="result91"
         id="feComposite144" />
      <feGaussianBlur
         in="result4"
         result="result3"
         stdDeviation="5"
         id="feGaussianBlur144" />
      <feSpecularLighting
         lighting-color="rgb(255,255,255)"
         in="result3"
         result="result5"
         specularExponent="35"
         specularConstant="2"
         surfaceScale="12"
         id="feSpecularLighting144">
        <feDistantLight
           elevation="45"
           azimuth="235"
           id="feDistantLight144" />
      </feSpecularLighting>
      <feComposite
         in2="result5"
         in="SourceGraphic"
         k3="0.7"
         k2="0.9"
         operator="arithmetic"
         result="result7"
         id="feComposite145" />
      <feGaussianBlur
         in="result7"
         result="result10"
         stdDeviation="1"
         id="feGaussianBlur145" />
      <feComposite
         in="result11"
         operator="in"
         in2="SourceGraphic"
         id="feComposite146" />
    </filter>
    <filter
       inkscape:label="Combined Lighting"
       inkscape:menu="Bevels"
       inkscape:menu-tooltip="Basic specular bevel to use for building textures"
       style="color-interpolation-filters:sRGB;"
       id="filter156"
       x="-0.036139508"
       y="-0.032223068"
       width="1.072279"
       height="1.0644461">
      <feGaussianBlur
         stdDeviation="6"
         in="SourceGraphic"
         result="result0"
         id="feGaussianBlur154" />
      <feDiffuseLighting
         lighting-color="rgb(255,255,255)"
         diffuseConstant="1"
         surfaceScale="4"
         result="result5"
         id="feDiffuseLighting154">
        <feDistantLight
           elevation="45"
           azimuth="235"
           id="feDistantLight154" />
      </feDiffuseLighting>
      <feComposite
         k1="1.4"
         in2="SourceGraphic"
         in="result5"
         result="fbSourceGraphic"
         operator="arithmetic"
         k2="0"
         k3="0"
         k4="0"
         id="feComposite154" />
      <feGaussianBlur
         result="result0"
         in="fbSourceGraphic"
         stdDeviation="6"
         id="feGaussianBlur155" />
      <feSpecularLighting
         specularExponent="25"
         specularConstant="1"
         surfaceScale="4"
         lighting-color="rgb(255,255,255)"
         result="result1"
         in="result0"
         id="feSpecularLighting155">
        <feDistantLight
           azimuth="235"
           elevation="45"
           id="feDistantLight155" />
      </feSpecularLighting>
      <feComposite
         k3="1"
         k2="1"
         operator="arithmetic"
         in="fbSourceGraphic"
         in2="result1"
         result="result4"
         k1="0"
         k4="0"
         id="feComposite155" />
      <feGaussianBlur
         stdDeviation="1"
         in="result4"
         result="result6"
         id="feGaussianBlur156" />
      <feComposite
         operator="in"
         result="result2"
         in2="SourceGraphic"
         in="result6"
         id="feComposite156" />
    </filter>
    <filter
       inkscape:label="Combined Lighting"
       inkscape:menu="Bevels"
       inkscape:menu-tooltip="Basic specular bevel to use for building textures"
       style="color-interpolation-filters:sRGB;"
       id="filter159"
       x="-0.057806822"
       y="-0.032559951"
       width="1.1156136"
       height="1.0651199">
      <feGaussianBlur
         stdDeviation="6"
         in="SourceGraphic"
         result="result0"
         id="feGaussianBlur157" />
      <feDiffuseLighting
         lighting-color="rgb(255,255,255)"
         diffuseConstant="1"
         surfaceScale="4"
         result="result5"
         id="feDiffuseLighting157">
        <feDistantLight
           elevation="45"
           azimuth="235"
           id="feDistantLight157" />
      </feDiffuseLighting>
      <feComposite
         k1="1.4"
         in2="SourceGraphic"
         in="result5"
         result="fbSourceGraphic"
         operator="arithmetic"
         k2="0"
         k3="0"
         k4="0"
         id="feComposite157" />
      <feGaussianBlur
         result="result0"
         in="fbSourceGraphic"
         stdDeviation="6"
         id="feGaussianBlur158" />
      <feSpecularLighting
         specularExponent="25"
         specularConstant="1"
         surfaceScale="4"
         lighting-color="rgb(255,255,255)"
         result="result1"
         in="result0"
         id="feSpecularLighting158">
        <feDistantLight
           azimuth="235"
           elevation="45"
           id="feDistantLight158" />
      </feSpecularLighting>
      <feComposite
         k3="1"
         k2="1"
         operator="arithmetic"
         in="fbSourceGraphic"
         in2="result1"
         result="result4"
         k1="0"
         k4="0"
         id="feComposite158" />
      <feGaussianBlur
         stdDeviation="1"
         in="result4"
         result="result6"
         id="feGaussianBlur159" />
      <feComposite
         operator="in"
         result="result2"
         in2="SourceGraphic"
         in="result6"
         id="feComposite159" />
    </filter>
  </defs>
  <sodipodi:namedview
     id="namedview1"
     pagecolor="#ffffff"
     bordercolor="#000000"
     borderopacity="0.25"
     inkscape:showpageshadow="2"
     inkscape:pageopacity="0.0"
     inkscape:pagecheckerboard="0"
     inkscape:deskcolor="#d1d1d1"
     showgrid="false"
     inkscape:zoom="0.39810112"
     inkscape:cx="-222.30533"
     inkscape:cy="188.39435"
     inkscape:window-width="2560"
     inkscape:window-height="1370"
     inkscape:window-x="1913"
     inkscape:window-y="-6"
     inkscape:window-maximized="1"
     inkscape:current-layer="g1" />
  <g
     inkscape:groupmode="layer"
     inkscape:label="Image"
     id="g1"
     style="display:inline">
    <g
       inkscape:groupmode="layer"
       id="layer1"
       inkscape:label="Back"
       style="display:inline">
      <path
         style="display:inline;opacity:1;fill:#47a4f9;fill-opacity:1"
         d="M 26.061218,171.59585 483.68117,0.55506217 565.26154,31.163565 116.25501,204.64336 115.23454,377.41667 c 0.68293,65.36661 11.98976,139.12845 22.73395,184.8119 C 187.16637,771.41408 314.8256,870.78529 449.4903,958.78745 276.26525,901.32958 55.357968,756.70521 25.53286,389.43162 Z"
         id="path7"
         sodipodi:nodetypes="cccccsccc" />
      <path
         style="display:none;opacity:0.208955;fill:#47a4f9;fill-opacity:1;filter:url(#filter159)"
         d="M 26.061218,171.59585 483.68117,0.55506217 565.26154,31.163565 116.25501,204.64336 115.23454,377.41667 c 0.68293,65.36661 11.98976,139.12845 22.73395,184.8119 C 187.16637,771.41408 314.8256,870.78529 449.4903,958.78745 276.26525,901.32958 55.357968,756.70521 25.53286,389.43162 Z"
         id="path156"
         sodipodi:nodetypes="cccccsccc"
         inkscape:label="bevel" />
      <path
         style="display:inline;opacity:1;mix-blend-mode:normal;fill:url(#radialGradient15);fill-opacity:1"
         d="M 26.061218,171.59585 483.68117,0.55506217 565.26154,31.163565 116.25501,204.64336 115.23454,377.41667 c -0.0693,65.36661 12.3247,139.04234 22.73395,184.8119 47.78452,210.10902 177.9009,310.35664 314.74021,397.02987 C 279.48365,901.80057 55.357968,756.70521 25.53286,389.43162 Z"
         id="path12"
         sodipodi:nodetypes="cccccsccc" />
      <path
         style="display:inline;opacity:1;fill:url(#radialGradient19);fill-opacity:1"
         d="M 26.061218,171.59585 483.68117,0.55506217 565.26154,31.163565 116.25501,204.64336 115.23454,377.41667 c -0.0693,65.36661 12.3247,139.04234 22.73395,184.8119 47.78452,210.10902 177.9009,310.35664 314.74021,397.02987 C 279.48365,901.80057 55.357968,756.70521 25.53286,389.43162 Z"
         id="path15"
         sodipodi:nodetypes="cccccsccc" />
    </g>
    <path
       style="display:inline;opacity:0.264925;fill:#753fff;fill-opacity:1;filter:url(#filter119)"
       d="m 566.16341,30.861457 412.07424,160.201813 0.004,201.47669 C 972.53782,528.65749 934.15731,660.46444 854.02282,773.52694 749.14859,902.9747 649.27633,955.38883 545.01554,999.1119 532.7988,999.00751 470.54741,966.90018 449.63451,958.92722 307.28157,868.31399 177.83582,757.0294 137.51513,562.65635 117.64596,466.8735 115.70935,410.28361 114.92055,379.30062 l 1.42048,-174.92673 z"
       id="path91"
       sodipodi:nodetypes="ccccccsccc"
       inkscape:label="shadow" />
    <path
       style="display:inline;opacity:1;fill:#753fff;fill-opacity:1"
       d="m 566.16341,30.861457 412.07424,160.201813 0.004,201.47669 C 972.53782,528.65749 934.15731,660.46444 854.02282,773.52694 749.14859,902.9747 649.27633,955.38883 545.01554,999.1119 532.7988,999.00751 470.54741,966.90018 449.63451,958.92722 307.28157,868.31399 177.83582,757.0294 137.51513,562.65635 117.64596,466.8735 115.70935,410.28361 114.92055,379.30062 l 1.42048,-174.92673 z"
       id="path8"
       sodipodi:nodetypes="ccccccsccc" />
    <path
       style="display:none;opacity:0.0783582;fill:#753fff;fill-opacity:1;filter:url(#filter156)"
       d="m 566.16341,30.861457 412.07424,160.201813 0.004,201.47669 C 972.53782,528.65749 934.15731,660.46444 854.02282,773.52694 749.14859,902.9747 649.27633,955.38883 545.01554,999.1119 532.7988,999.00751 470.54741,966.90018 449.63451,958.92722 307.28157,868.31399 177.83582,757.0294 137.51513,562.65635 117.64596,466.8735 115.70935,410.28361 114.92055,379.30062 l 1.42048,-174.92673 z"
       id="path146"
       sodipodi:nodetypes="ccccccsccc"
       inkscape:label="bevel" />
    <path
       style="display:inline;opacity:1;fill:url(#radialGradient36);fill-opacity:1"
       d="m 566.16341,30.861457 412.07424,160.201813 0.004,201.47669 C 972.53782,528.65749 934.15731,660.46444 854.02282,773.52694 749.14859,902.9747 649.27633,955.38883 545.01554,999.1119 532.7988,999.00751 470.54741,966.90018 449.63451,958.92722 307.28157,868.31399 177.83582,757.0294 137.51513,562.65635 117.64596,466.8735 115.70935,410.28361 114.92055,379.30062 l 1.42048,-174.92673 z"
       id="path29"
       sodipodi:nodetypes="ccccccsccc" />
    <path
       style="display:inline;opacity:1;fill:url(#radialGradient31);fill-opacity:1"
       d="m 566.16341,30.861457 412.07424,160.201813 0.004,201.47669 C 972.53782,528.65749 934.15731,660.46444 854.02282,773.52694 749.14859,902.9747 649.27633,955.38883 545.01554,999.1119 532.7988,999.00751 470.54741,966.90018 449.63451,958.92722 307.28157,868.31399 177.83582,757.0294 137.51513,562.65635 117.64596,466.8735 115.70935,410.28361 114.92055,379.30062 l 1.42048,-174.92673 z"
       id="path30"
       sodipodi:nodetypes="ccccccsccc" />
  </g>
  <g
     inkscape:groupmode="layer"
     id="layer2"
     inkscape:label="finger">
    <path
       style="display:inline;opacity:0.514925;fill:#51cbfb;fill-opacity:1;filter:url(#filter89)"
       d="m 592.5,826.30839 c -14.98826,-7.78937 -57.08141,-47.20933 -65.19894,-61.05839 -3.1476,-5.37003 -4.34587,-5.32227 -12.54583,0.5 -3.67939,2.6125 -9.64424,6.775 -13.25523,9.25 -3.61099,2.475 -9.45143,6.525 -12.97877,9 -38.9021,27.29614 -45.60428,31 -56.0949,31 -7.96028,0 -11.40853,-1.999 -13.81259,-8.00734 -4.50374,-11.25596 -0.75466,-16.65958 21.03358,-30.31608 17.83196,-11.17678 42.04262,-27.92439 55.66788,-38.508 14.07968,-10.9366 20.40892,-14.13936 27.97464,-14.15591 8.63869,-0.0189 11.52579,2.03402 29.04875,20.65567 14.79647,15.7242 22.87694,23.54289 48.84084,47.25857 C 614.87277,804.43454 617,807.57299 617,815.26813 c 0,12.375 -11.74648,17.66823 -24.5,11.04026 z m 61.23182,-30.25915 C 622.63231,780.27665 571.1343,732.44466 540.09291,690.5 c -11.66873,-15.76735 -10.64456,-15.8987 -33.7783,4.332 -28.25021,24.70512 -86.08201,63.33024 -111.95136,74.7709 -10.59435,4.68532 -20.2594,2.44131 -24.39434,-5.66383 -5.50934,-10.79921 0.59334,-18.90491 25.10735,-33.34806 C 445.81827,700.69487 477.49497,677.56003 502,652.50005 513.79441,640.43854 525.56476,632 530.59414,632 c 8.01553,0 16.7613,7.21055 24.86475,20.5 8.23162,13.49966 15.75359,24.73772 20.41458,30.5 19.48013,24.08287 41.42952,45.18884 69.15742,66.5 2.86241,2.2 6.89851,5.35 8.96911,7 2.0706,1.65 6.17236,4.8 9.11502,7 2.94266,2.2 7.4956,6.07321 10.11764,8.60714 L 678,776.71429 v 5.99497 c 0,13.76558 -11.24314,19.94583 -24.26818,13.33998 z m 46.74799,-40.46596 C 675.96379,746.13977 621.41739,701.06279 596.31282,669.5 573.23017,640.47928 553.58381,603.1684 551.31984,584.05277 550.23301,574.87613 556.91252,567 565.78179,567 c 9.43216,0 13.08989,4.0505 23.06552,25.54232 11.63901,25.07546 14.28751,30.02171 21.57791,40.29817 21.55322,30.38118 53.71468,60.27554 91.07478,84.65481 23.68091,15.45294 27.11917,20.49022 21.50169,31.5014 -4.19745,8.22767 -12.19189,10.56567 -22.52188,6.58658 z M 336.69598,720.74624 c -5.7884,-3.59431 -7.68166,-7.16282 -7.68939,-14.49336 -0.008,-7.71572 3.50639,-12.25235 13.88923,-17.92851 78.55578,-42.94536 116.56783,-73.77499 146.23629,-118.60477 15.11058,-22.83247 26.52611,-47.56368 32.98923,-71.4696 0.48326,-1.7875 1.33517,-4.9375 1.89313,-7 2.03573,-7.52506 3.09596,-12.90777 3.98866,-20.25 2.32491,-19.12186 7.95348,-27.98507 17.77899,-27.99626 12.64642,-0.0144 18.47181,11.69591 15.14065,30.43606 -2.95677,16.63392 -4.81126,25.87692 -5.93088,29.5602 -0.41797,1.375 -1.32606,4.525 -2.01798,7 -16.15516,57.78681 -52.3755,111.25861 -102.10829,150.74167 -22.85012,18.14079 -37.19229,27.24147 -73.36562,46.55337 -31.32263,16.72226 -34.07499,17.62959 -40.80402,13.4512 z M 739.5,712.63118 C 732.61819,709.39773 692.60899,682.36372 681,673.10304 638.39179,639.11377 607.74055,593.96677 594.0282,545 c -0.69308,-2.475 -1.62001,-5.625 -2.05983,-7 -0.43982,-1.375 -1.10886,-4.075 -1.48676,-6 -0.3779,-1.925 -1.10015,-5.3 -1.605,-7.5 -3.33582,-14.5366 -4.76508,-28.47495 -5.84485,-57 -1.19467,-31.56025 -1.82087,-35.71615 -6.93741,-46.04176 -14.22997,-28.71726 -47.54257,-31.94576 -64.17051,-6.21911 -5.00686,7.74659 -7.07224,14.3189 -8.95965,28.51087 -4.66963,35.1122 -6.12788,41.26683 -16.11157,68 -15.78066,42.25561 -50.05075,82.68921 -96.35262,113.68172 -17.34316,11.60878 -69.31651,36.99778 -75.7268,36.99256 -8.26096,-0.007 -14.28504,-4.64128 -15.46228,-11.89574 -1.82077,-11.22007 3.75219,-17.04604 27.83258,-29.09623 38.20355,-19.11761 59.97659,-33.78865 82.22277,-55.40304 C 447.64623,528.83643 464.171,493.9667 470.98715,436 c 3.06974,-26.10607 8.97374,-39.21199 24.10119,-53.50074 23.99445,-22.66415 61.44392,-25.28029 88.23329,-6.1638 22.9073,16.34632 29.93179,34.34807 31.67131,81.16454 1.3515,36.37359 1.65287,39.71985 5.15616,57.25 13.04108,65.25644 55.30969,120.64318 122.98423,161.15258 21.66426,12.96804 26.06803,19.44927 20.91987,30.78875 -3.64367,8.02564 -14.51605,10.65586 -24.5532,5.93985 z m 33.83795,-51.46564 C 755.01678,653.78096 724.12175,632.31112 706.9677,615.04295 684.74681,592.67424 663.49749,556.20399 655.96098,527.5 c -3.08513,-11.75021 -3.78873,-14.61457 -4.78993,-19.5 -2.0229,-9.8709 -3.08115,-21.53693 -5.17057,-57 -2.36557,-40.14998 -8.28793,-59.43684 -24.45631,-79.64482 -29.31018,-36.63319 -78.91589,-49.2729 -119.23119,-30.38051 -30.23001,14.16626 -55.30844,46.54809 -60.42749,78.02533 -0.49195,3.025 -1.34246,7.75 -1.89003,10.5 -1.41425,7.10257 -2.75416,14.06544 -4.04117,21 -0.61246,3.3 -1.52773,8.1375 -2.03393,10.75 -0.5062,2.6125 -1.30494,6.8875 -1.77497,9.5 -5.71072,31.7406 -39.12045,74.27459 -78.14539,99.48705 -11.05314,7.14099 -53.1017,28.39593 -59.31465,29.9827 -12.50521,3.19379 -22.89744,-11.04658 -16.79176,-23.00959 2.72011,-5.32957 3.3657,-5.7673 27.56864,-18.69225 40.65212,-21.70919 56.81117,-34.6526 75.22413,-60.25456 10.94042,-15.21191 23.20435,-42.59016 23.29266,-51.999 0.0115,-1.22961 0.45586,-4.15461 0.98739,-6.5 0.53152,-2.34539 1.45837,-8.31435 2.05965,-13.26435 8.20572,-67.55286 42.65596,-107.99434 106.45619,-124.96995 10.23826,-2.72415 44.98032,-3.76538 53.40173,-1.60047 1.98881,0.51126 6.31602,1.49549 9.61602,2.18718 45.18043,9.46988 86.60941,51.51669 97.94359,99.40421 0.90851,3.83847 1.89052,7.87903 2.18225,8.97903 0.51562,1.94413 1.53871,13.88606 3.38408,39.5 2.58147,35.83109 3.08998,41.98145 3.92731,47.5 5.56204,36.6575 30.16374,79.40562 59.47878,103.35084 12.38051,10.1127 16.27667,12.90989 26.71246,19.17782 28.02958,16.83509 33.83293,24.28604 27.92914,35.85842 -4.1568,8.14801 -12.9447,10.02451 -24.71966,5.27846 z m 27.39989,-58.68786 C 759.28911,587.25842 722.4821,536.66615 714.17892,483.5 c -1.27421,-8.15895 -3.19835,-42.53758 -3.18685,-56.9398 0.0108,-13.59103 -2.42075,-27.53666 -7.68245,-44.0602 C 685.63472,326.99472 636.26036,282.11491 579,269.50629 c -4.125,-0.90832 -9.12721,-2.06882 -11.11602,-2.57889 -1.98881,-0.51007 -6.48881,-0.96025 -10,-1.0004 -3.51119,-0.0402 -8.78055,-0.41385 -11.7097,-0.83044 -16.84496,-2.39571 -49.64712,4.76934 -72.67428,15.87442 -53.29827,25.70362 -88.74763,73.2085 -97.40411,130.52902 -0.58142,3.85 -1.29592,8.575 -1.58778,10.5 -0.29186,1.925 -0.96444,6.65 -1.49463,10.5 -2.47362,17.96241 -5.08332,25.43905 -13.63183,39.05438 -14.9493,23.81 -41.94768,48.2878 -64.03324,58.05508 C 282.77848,535.16848 272,529.16558 272,516.60595 c 0,-9.2269 3.27927,-13.32772 19.63513,-24.55426 C 311.16843,478.64418 322.96308,466.32129 330.92707,451 335.87142,441.48795 341,424.83681 341,418.29584 c 0,-1.4715 0.43642,-5.17754 0.96983,-8.23564 0.5334,-3.05811 1.49534,-8.9352 2.13764,-13.0602 3.71401,-23.85246 15.32707,-53.09057 30.03695,-75.62385 C 417.51418,254.94033 500.99042,219.49221 580,233.95974 661.74097,248.92741 728.66306,314.84892 741.96183,393.5 c 0.65098,3.85 1.60088,9.43755 2.11089,12.41678 0.51,2.97923 0.92728,14.4335 0.92728,25.45393 0,49.43677 6.63581,74.93258 27.0194,103.81271 8.22551,11.65415 16.88844,19.62919 32.80463,30.19971 20.13857,13.37476 24.53485,20.96118 18.1822,31.37601 -4.13421,6.77782 -13.10765,9.0822 -22.26839,5.71854 z m 14.26728,-66.22159 c -7.29258,-2.57317 -14.04301,-10.51813 -20.95206,-24.65961 -12.21374,-24.9992 -13.61777,-32.09885 -14.95586,-75.62627 -0.56692,-18.44139 -1.52504,-35.99139 -2.12917,-39 C 776.3639,393.96159 775.38186,389.025 774.78571,386 773.81448,381.07178 772.4584,375.5291 770.01479,366.5 748.83825,288.25293 679.9576,222.60907 598.5,203.04489 c -4.95,-1.18887 -9.9,-2.38611 -11,-2.66054 -7.80648,-1.94755 -36.18267,-4.69113 -45.5,-4.39922 -7.66369,0.2401 -30.3143,1.90821 -34,2.50394 -73.50579,11.88089 -135.47492,55.64278 -172.77385,122.01093 -7.67533,13.65717 -15.9101,33.32486 -19.25999,46 -2.91503,11.02978 -3.79717,14.64655 -4.81706,19.75 -2.97502,14.88675 -3.25003,16.85997 -5.1219,36.75 -1.84467,19.60101 -6.43057,26 -18.63315,26 -6.4892,0 -11.17479,-2.74153 -13.98999,-8.18553 -3.76968,-7.28975 0.66111,-48.18624 8.56131,-79.02142 C 306.49948,266.03415 392.46658,184.38059 488,166.09655 c 3.025,-0.57896 7.3,-1.28119 9.5,-1.56053 2.2,-0.27934 7.15,-1.0494 11,-1.71125 7.80459,-1.34167 54.305,-1.70403 64,-0.49872 5.68079,0.70625 8.62747,1.20269 22.25,3.74854 10.64322,1.98907 23.56987,5.3942 34.75,9.15382 89.19825,29.99535 156.20645,102.05135 176.94236,190.27159 5.1792,22.03474 5.62315,26.37543 6.03439,59 0.56375,44.72441 1.35929,48.61399 15.62239,76.38139 8.93437,17.39342 9.70853,21.32846 5.63029,28.61861 -3.9537,7.06754 -10.82011,9.54508 -18.72431,6.75609 z"
       id="path54"
       sodipodi:nodetypes="sssssssssssssssssssssssssssscssssssssssssssssssssssssssssssssssssscsssssssssssssssssssssssssssssssssssssssssssssssssssssssssssssssssssssssssssssssssssssssssssssssssss"
       inkscape:label="shadow" />
    <path
       style="display:inline;fill:#51cbfb;fill-opacity:1"
       d="m 592.5,826.30839 c -14.98826,-7.78937 -57.08141,-47.20933 -65.19894,-61.05839 -3.1476,-5.37003 -4.34587,-5.32227 -12.54583,0.5 -3.67939,2.6125 -9.64424,6.775 -13.25523,9.25 -3.61099,2.475 -9.45143,6.525 -12.97877,9 -38.9021,27.29614 -45.60428,31 -56.0949,31 -7.96028,0 -11.40853,-1.999 -13.81259,-8.00734 -4.50374,-11.25596 -0.75466,-16.65958 21.03358,-30.31608 17.83196,-11.17678 42.04262,-27.92439 55.66788,-38.508 14.07968,-10.9366 20.40892,-14.13936 27.97464,-14.15591 8.63869,-0.0189 11.52579,2.03402 29.04875,20.65567 14.79647,15.7242 22.87694,23.54289 48.84084,47.25857 C 614.87277,804.43454 617,807.57299 617,815.26813 c 0,12.375 -11.74648,17.66823 -24.5,11.04026 z m 61.23182,-30.25915 C 622.63231,780.27665 571.1343,732.44466 540.09291,690.5 c -11.66873,-15.76735 -10.64456,-15.8987 -33.7783,4.332 -28.25021,24.70512 -86.08201,63.33024 -111.95136,74.7709 -10.59435,4.68532 -20.2594,2.44131 -24.39434,-5.66383 -5.50934,-10.79921 0.59334,-18.90491 25.10735,-33.34806 C 445.81827,700.69487 477.49497,677.56003 502,652.50005 513.79441,640.43854 525.56476,632 530.59414,632 c 8.01553,0 16.7613,7.21055 24.86475,20.5 8.23162,13.49966 15.75359,24.73772 20.41458,30.5 19.48013,24.08287 41.42952,45.18884 69.15742,66.5 2.86241,2.2 6.89851,5.35 8.96911,7 2.0706,1.65 6.17236,4.8 9.11502,7 2.94266,2.2 7.4956,6.07321 10.11764,8.60714 L 678,776.71429 v 5.99497 c 0,13.76558 -11.24314,19.94583 -24.26818,13.33998 z m 46.74799,-40.46596 C 675.96379,746.13977 621.41739,701.06279 596.31282,669.5 573.23017,640.47928 553.58381,603.1684 551.31984,584.05277 550.23301,574.87613 556.91252,567 565.78179,567 c 9.43216,0 13.08989,4.0505 23.06552,25.54232 11.63901,25.07546 14.28751,30.02171 21.57791,40.29817 21.55322,30.38118 53.71468,60.27554 91.07478,84.65481 23.68091,15.45294 27.11917,20.49022 21.50169,31.5014 -4.19745,8.22767 -12.19189,10.56567 -22.52188,6.58658 z M 336.69598,720.74624 c -5.7884,-3.59431 -7.68166,-7.16282 -7.68939,-14.49336 -0.008,-7.71572 3.50639,-12.25235 13.88923,-17.92851 78.55578,-42.94536 116.56783,-73.77499 146.23629,-118.60477 15.11058,-22.83247 26.52611,-47.56368 32.98923,-71.4696 0.48326,-1.7875 1.33517,-4.9375 1.89313,-7 2.03573,-7.52506 3.09596,-12.90777 3.98866,-20.25 2.32491,-19.12186 7.95348,-27.98507 17.77899,-27.99626 12.64642,-0.0144 18.47181,11.69591 15.14065,30.43606 -2.95677,16.63392 -4.81126,25.87692 -5.93088,29.5602 -0.41797,1.375 -1.32606,4.525 -2.01798,7 -16.15516,57.78681 -52.3755,111.25861 -102.10829,150.74167 -22.85012,18.14079 -37.19229,27.24147 -73.36562,46.55337 -31.32263,16.72226 -34.07499,17.62959 -40.80402,13.4512 z M 739.5,712.63118 C 732.61819,709.39773 692.60899,682.36372 681,673.10304 638.39179,639.11377 607.74055,593.96677 594.0282,545 c -0.69308,-2.475 -1.62001,-5.625 -2.05983,-7 -0.43982,-1.375 -1.10886,-4.075 -1.48676,-6 -0.3779,-1.925 -1.10015,-5.3 -1.605,-7.5 -3.33582,-14.5366 -4.76508,-28.47495 -5.84485,-57 -1.19467,-31.56025 -1.82087,-35.71615 -6.93741,-46.04176 -14.22997,-28.71726 -47.54257,-31.94576 -64.17051,-6.21911 -5.00686,7.74659 -7.07224,14.3189 -8.95965,28.51087 -4.66963,35.1122 -6.12788,41.26683 -16.11157,68 -15.78066,42.25561 -50.05075,82.68921 -96.35262,113.68172 -17.34316,11.60878 -69.31651,36.99778 -75.7268,36.99256 -8.26096,-0.007 -14.28504,-4.64128 -15.46228,-11.89574 -1.82077,-11.22007 3.75219,-17.04604 27.83258,-29.09623 38.20355,-19.11761 59.97659,-33.78865 82.22277,-55.40304 C 447.64623,528.83643 464.171,493.9667 470.98715,436 c 3.06974,-26.10607 8.97374,-39.21199 24.10119,-53.50074 23.99445,-22.66415 61.44392,-25.28029 88.23329,-6.1638 22.9073,16.34632 29.93179,34.34807 31.67131,81.16454 1.3515,36.37359 1.65287,39.71985 5.15616,57.25 13.04108,65.25644 55.30969,120.64318 122.98423,161.15258 21.66426,12.96804 26.06803,19.44927 20.91987,30.78875 -3.64367,8.02564 -14.51605,10.65586 -24.5532,5.93985 z m 33.83795,-51.46564 C 755.01678,653.78096 724.12175,632.31112 706.9677,615.04295 684.74681,592.67424 663.49749,556.20399 655.96098,527.5 c -3.08513,-11.75021 -3.78873,-14.61457 -4.78993,-19.5 -2.0229,-9.8709 -3.08115,-21.53693 -5.17057,-57 -2.36557,-40.14998 -8.28793,-59.43684 -24.45631,-79.64482 -29.31018,-36.63319 -78.91589,-49.2729 -119.23119,-30.38051 -30.23001,14.16626 -55.30844,46.54809 -60.42749,78.02533 -0.49195,3.025 -1.34246,7.75 -1.89003,10.5 -1.41425,7.10257 -2.75416,14.06544 -4.04117,21 -0.61246,3.3 -1.52773,8.1375 -2.03393,10.75 -0.5062,2.6125 -1.30494,6.8875 -1.77497,9.5 -5.71072,31.7406 -39.12045,74.27459 -78.14539,99.48705 -11.05314,7.14099 -53.1017,28.39593 -59.31465,29.9827 -12.50521,3.19379 -22.89744,-11.04658 -16.79176,-23.00959 2.72011,-5.32957 3.3657,-5.7673 27.56864,-18.69225 40.65212,-21.70919 56.81117,-34.6526 75.22413,-60.25456 10.94042,-15.21191 23.20435,-42.59016 23.29266,-51.999 0.0115,-1.22961 0.45586,-4.15461 0.98739,-6.5 0.53152,-2.34539 1.45837,-8.31435 2.05965,-13.26435 8.20572,-67.55286 42.65596,-107.99434 106.45619,-124.96995 10.23826,-2.72415 44.98032,-3.76538 53.40173,-1.60047 1.98881,0.51126 6.31602,1.49549 9.61602,2.18718 45.18043,9.46988 86.60941,51.51669 97.94359,99.40421 0.90851,3.83847 1.89052,7.87903 2.18225,8.97903 0.51562,1.94413 1.53871,13.88606 3.38408,39.5 2.58147,35.83109 3.08998,41.98145 3.92731,47.5 5.56204,36.6575 30.16374,79.40562 59.47878,103.35084 12.38051,10.1127 16.27667,12.90989 26.71246,19.17782 28.02958,16.83509 33.83293,24.28604 27.92914,35.85842 -4.1568,8.14801 -12.9447,10.02451 -24.71966,5.27846 z m 27.39989,-58.68786 C 759.28911,587.25842 722.4821,536.66615 714.17892,483.5 c -1.27421,-8.15895 -3.19835,-42.53758 -3.18685,-56.9398 0.0108,-13.59103 -2.42075,-27.53666 -7.68245,-44.0602 C 685.63472,326.99472 636.26036,282.11491 579,269.50629 c -4.125,-0.90832 -9.12721,-2.06882 -11.11602,-2.57889 -1.98881,-0.51007 -6.48881,-0.96025 -10,-1.0004 -3.51119,-0.0402 -8.78055,-0.41385 -11.7097,-0.83044 -16.84496,-2.39571 -49.64712,4.76934 -72.67428,15.87442 -53.29827,25.70362 -88.74763,73.2085 -97.40411,130.52902 -0.58142,3.85 -1.29592,8.575 -1.58778,10.5 -0.29186,1.925 -0.96444,6.65 -1.49463,10.5 -2.47362,17.96241 -5.08332,25.43905 -13.63183,39.05438 -14.9493,23.81 -41.94768,48.2878 -64.03324,58.05508 C 282.77848,535.16848 272,529.16558 272,516.60595 c 0,-9.2269 3.27927,-13.32772 19.63513,-24.55426 C 311.16843,478.64418 322.96308,466.32129 330.92707,451 335.87142,441.48795 341,424.83681 341,418.29584 c 0,-1.4715 0.43642,-5.17754 0.96983,-8.23564 0.5334,-3.05811 1.49534,-8.9352 2.13764,-13.0602 3.71401,-23.85246 15.32707,-53.09057 30.03695,-75.62385 C 417.51418,254.94033 500.99042,219.49221 580,233.95974 661.74097,248.92741 728.66306,314.84892 741.96183,393.5 c 0.65098,3.85 1.60088,9.43755 2.11089,12.41678 0.51,2.97923 0.92728,14.4335 0.92728,25.45393 0,49.43677 6.63581,74.93258 27.0194,103.81271 8.22551,11.65415 16.88844,19.62919 32.80463,30.19971 20.13857,13.37476 24.53485,20.96118 18.1822,31.37601 -4.13421,6.77782 -13.10765,9.0822 -22.26839,5.71854 z m 14.26728,-66.22159 c -7.29258,-2.57317 -14.04301,-10.51813 -20.95206,-24.65961 -12.21374,-24.9992 -13.61777,-32.09885 -14.95586,-75.62627 -0.56692,-18.44139 -1.52504,-35.99139 -2.12917,-39 C 776.3639,393.96159 775.38186,389.025 774.78571,386 773.81448,381.07178 772.4584,375.5291 770.01479,366.5 748.83825,288.25293 679.9576,222.60907 598.5,203.04489 c -4.95,-1.18887 -9.9,-2.38611 -11,-2.66054 -7.80648,-1.94755 -36.18267,-4.69113 -45.5,-4.39922 -7.66369,0.2401 -30.3143,1.90821 -34,2.50394 -73.50579,11.88089 -135.47492,55.64278 -172.77385,122.01093 -7.67533,13.65717 -15.9101,33.32486 -19.25999,46 -2.91503,11.02978 -3.79717,14.64655 -4.81706,19.75 -2.97502,14.88675 -3.25003,16.85997 -5.1219,36.75 -1.84467,19.60101 -6.43057,26 -18.63315,26 -6.4892,0 -11.17479,-2.74153 -13.98999,-8.18553 -3.76968,-7.28975 0.66111,-48.18624 8.56131,-79.02142 C 306.49948,266.03415 392.46658,184.38059 488,166.09655 c 3.025,-0.57896 7.3,-1.28119 9.5,-1.56053 2.2,-0.27934 7.15,-1.0494 11,-1.71125 7.80459,-1.34167 54.305,-1.70403 64,-0.49872 5.68079,0.70625 8.62747,1.20269 22.25,3.74854 10.64322,1.98907 23.56987,5.3942 34.75,9.15382 89.19825,29.99535 156.20645,102.05135 176.94236,190.27159 5.1792,22.03474 5.62315,26.37543 6.03439,59 0.56375,44.72441 1.35929,48.61399 15.62239,76.38139 8.93437,17.39342 9.70853,21.32846 5.63029,28.61861 -3.9537,7.06754 -10.82011,9.54508 -18.72431,6.75609 z"
       id="path6"
       sodipodi:nodetypes="sssssssssssssssssssssssssssscssssssssssssssssssssssssssssssssssssscsssssssssssssssssssssssssssssssssssssssssssssssssssssssssssssssssssssssssssssssssssssssssssssssssss" />
    <path
       style="display:inline;fill:#51cbfb;fill-opacity:1;filter:url(#filter146);opacity:0.17164179"
       d="m 592.5,826.30839 c -14.98826,-7.78937 -57.08141,-47.20933 -65.19894,-61.05839 -3.1476,-5.37003 -4.34587,-5.32227 -12.54583,0.5 -3.67939,2.6125 -9.64424,6.775 -13.25523,9.25 -3.61099,2.475 -9.45143,6.525 -12.97877,9 -38.9021,27.29614 -45.60428,31 -56.0949,31 -7.96028,0 -11.40853,-1.999 -13.81259,-8.00734 -4.50374,-11.25596 -0.75466,-16.65958 21.03358,-30.31608 17.83196,-11.17678 42.04262,-27.92439 55.66788,-38.508 14.07968,-10.9366 20.40892,-14.13936 27.97464,-14.15591 8.63869,-0.0189 11.52579,2.03402 29.04875,20.65567 14.79647,15.7242 22.87694,23.54289 48.84084,47.25857 C 614.87277,804.43454 617,807.57299 617,815.26813 c 0,12.375 -11.74648,17.66823 -24.5,11.04026 z m 61.23182,-30.25915 C 622.63231,780.27665 571.1343,732.44466 540.09291,690.5 c -11.66873,-15.76735 -10.64456,-15.8987 -33.7783,4.332 -28.25021,24.70512 -86.08201,63.33024 -111.95136,74.7709 -10.59435,4.68532 -20.2594,2.44131 -24.39434,-5.66383 -5.50934,-10.79921 0.59334,-18.90491 25.10735,-33.34806 C 445.81827,700.69487 477.49497,677.56003 502,652.50005 513.79441,640.43854 525.56476,632 530.59414,632 c 8.01553,0 16.7613,7.21055 24.86475,20.5 8.23162,13.49966 15.75359,24.73772 20.41458,30.5 19.48013,24.08287 41.42952,45.18884 69.15742,66.5 2.86241,2.2 6.89851,5.35 8.96911,7 2.0706,1.65 6.17236,4.8 9.11502,7 2.94266,2.2 7.4956,6.07321 10.11764,8.60714 L 678,776.71429 v 5.99497 c 0,13.76558 -11.24314,19.94583 -24.26818,13.33998 z m 46.74799,-40.46596 C 675.96379,746.13977 621.41739,701.06279 596.31282,669.5 573.23017,640.47928 553.58381,603.1684 551.31984,584.05277 550.23301,574.87613 556.91252,567 565.78179,567 c 9.43216,0 13.08989,4.0505 23.06552,25.54232 11.63901,25.07546 14.28751,30.02171 21.57791,40.29817 21.55322,30.38118 53.71468,60.27554 91.07478,84.65481 23.68091,15.45294 27.11917,20.49022 21.50169,31.5014 -4.19745,8.22767 -12.19189,10.56567 -22.52188,6.58658 z M 336.69598,720.74624 c -5.7884,-3.59431 -7.68166,-7.16282 -7.68939,-14.49336 -0.008,-7.71572 3.50639,-12.25235 13.88923,-17.92851 78.55578,-42.94536 116.56783,-73.77499 146.23629,-118.60477 15.11058,-22.83247 26.52611,-47.56368 32.98923,-71.4696 0.48326,-1.7875 1.33517,-4.9375 1.89313,-7 2.03573,-7.52506 3.09596,-12.90777 3.98866,-20.25 2.32491,-19.12186 7.95348,-27.98507 17.77899,-27.99626 12.64642,-0.0144 18.47181,11.69591 15.14065,30.43606 -2.95677,16.63392 -4.81126,25.87692 -5.93088,29.5602 -0.41797,1.375 -1.32606,4.525 -2.01798,7 -16.15516,57.78681 -52.3755,111.25861 -102.10829,150.74167 -22.85012,18.14079 -37.19229,27.24147 -73.36562,46.55337 -31.32263,16.72226 -34.07499,17.62959 -40.80402,13.4512 z M 739.5,712.63118 C 732.61819,709.39773 692.60899,682.36372 681,673.10304 638.39179,639.11377 607.74055,593.96677 594.0282,545 c -0.69308,-2.475 -1.62001,-5.625 -2.05983,-7 -0.43982,-1.375 -1.10886,-4.075 -1.48676,-6 -0.3779,-1.925 -1.10015,-5.3 -1.605,-7.5 -3.33582,-14.5366 -4.76508,-28.47495 -5.84485,-57 -1.19467,-31.56025 -1.82087,-35.71615 -6.93741,-46.04176 -14.22997,-28.71726 -47.54257,-31.94576 -64.17051,-6.21911 -5.00686,7.74659 -7.07224,14.3189 -8.95965,28.51087 -4.66963,35.1122 -6.12788,41.26683 -16.11157,68 -15.78066,42.25561 -50.05075,82.68921 -96.35262,113.68172 -17.34316,11.60878 -69.31651,36.99778 -75.7268,36.99256 -8.26096,-0.007 -14.28504,-4.64128 -15.46228,-11.89574 -1.82077,-11.22007 3.75219,-17.04604 27.83258,-29.09623 38.20355,-19.11761 59.97659,-33.78865 82.22277,-55.40304 C 447.64623,528.83643 464.171,493.9667 470.98715,436 c 3.06974,-26.10607 8.97374,-39.21199 24.10119,-53.50074 23.99445,-22.66415 61.44392,-25.28029 88.23329,-6.1638 22.9073,16.34632 29.93179,34.34807 31.67131,81.16454 1.3515,36.37359 1.65287,39.71985 5.15616,57.25 13.04108,65.25644 55.30969,120.64318 122.98423,161.15258 21.66426,12.96804 26.06803,19.44927 20.91987,30.78875 -3.64367,8.02564 -14.51605,10.65586 -24.5532,5.93985 z m 33.83795,-51.46564 C 755.01678,653.78096 724.12175,632.31112 706.9677,615.04295 684.74681,592.67424 663.49749,556.20399 655.96098,527.5 c -3.08513,-11.75021 -3.78873,-14.61457 -4.78993,-19.5 -2.0229,-9.8709 -3.08115,-21.53693 -5.17057,-57 -2.36557,-40.14998 -8.28793,-59.43684 -24.45631,-79.64482 -29.31018,-36.63319 -78.91589,-49.2729 -119.23119,-30.38051 -30.23001,14.16626 -55.30844,46.54809 -60.42749,78.02533 -0.49195,3.025 -1.34246,7.75 -1.89003,10.5 -1.41425,7.10257 -2.75416,14.06544 -4.04117,21 -0.61246,3.3 -1.52773,8.1375 -2.03393,10.75 -0.5062,2.6125 -1.30494,6.8875 -1.77497,9.5 -5.71072,31.7406 -39.12045,74.27459 -78.14539,99.48705 -11.05314,7.14099 -53.1017,28.39593 -59.31465,29.9827 -12.50521,3.19379 -22.89744,-11.04658 -16.79176,-23.00959 2.72011,-5.32957 3.3657,-5.7673 27.56864,-18.69225 40.65212,-21.70919 56.81117,-34.6526 75.22413,-60.25456 10.94042,-15.21191 23.20435,-42.59016 23.29266,-51.999 0.0115,-1.22961 0.45586,-4.15461 0.98739,-6.5 0.53152,-2.34539 1.45837,-8.31435 2.05965,-13.26435 8.20572,-67.55286 42.65596,-107.99434 106.45619,-124.96995 10.23826,-2.72415 44.98032,-3.76538 53.40173,-1.60047 1.98881,0.51126 6.31602,1.49549 9.61602,2.18718 45.18043,9.46988 86.60941,51.51669 97.94359,99.40421 0.90851,3.83847 1.89052,7.87903 2.18225,8.97903 0.51562,1.94413 1.53871,13.88606 3.38408,39.5 2.58147,35.83109 3.08998,41.98145 3.92731,47.5 5.56204,36.6575 30.16374,79.40562 59.47878,103.35084 12.38051,10.1127 16.27667,12.90989 26.71246,19.17782 28.02958,16.83509 33.83293,24.28604 27.92914,35.85842 -4.1568,8.14801 -12.9447,10.02451 -24.71966,5.27846 z m 27.39989,-58.68786 C 759.28911,587.25842 722.4821,536.66615 714.17892,483.5 c -1.27421,-8.15895 -3.19835,-42.53758 -3.18685,-56.9398 0.0108,-13.59103 -2.42075,-27.53666 -7.68245,-44.0602 C 685.63472,326.99472 636.26036,282.11491 579,269.50629 c -4.125,-0.90832 -9.12721,-2.06882 -11.11602,-2.57889 -1.98881,-0.51007 -6.48881,-0.96025 -10,-1.0004 -3.51119,-0.0402 -8.78055,-0.41385 -11.7097,-0.83044 -16.84496,-2.39571 -49.64712,4.76934 -72.67428,15.87442 -53.29827,25.70362 -88.74763,73.2085 -97.40411,130.52902 -0.58142,3.85 -1.29592,8.575 -1.58778,10.5 -0.29186,1.925 -0.96444,6.65 -1.49463,10.5 -2.47362,17.96241 -5.08332,25.43905 -13.63183,39.05438 -14.9493,23.81 -41.94768,48.2878 -64.03324,58.05508 C 282.77848,535.16848 272,529.16558 272,516.60595 c 0,-9.2269 3.27927,-13.32772 19.63513,-24.55426 C 311.16843,478.64418 322.96308,466.32129 330.92707,451 335.87142,441.48795 341,424.83681 341,418.29584 c 0,-1.4715 0.43642,-5.17754 0.96983,-8.23564 0.5334,-3.05811 1.49534,-8.9352 2.13764,-13.0602 3.71401,-23.85246 15.32707,-53.09057 30.03695,-75.62385 C 417.51418,254.94033 500.99042,219.49221 580,233.95974 661.74097,248.92741 728.66306,314.84892 741.96183,393.5 c 0.65098,3.85 1.60088,9.43755 2.11089,12.41678 0.51,2.97923 0.92728,14.4335 0.92728,25.45393 0,49.43677 6.63581,74.93258 27.0194,103.81271 8.22551,11.65415 16.88844,19.62919 32.80463,30.19971 20.13857,13.37476 24.53485,20.96118 18.1822,31.37601 -4.13421,6.77782 -13.10765,9.0822 -22.26839,5.71854 z m 14.26728,-66.22159 c -7.29258,-2.57317 -14.04301,-10.51813 -20.95206,-24.65961 -12.21374,-24.9992 -13.61777,-32.09885 -14.95586,-75.62627 -0.56692,-18.44139 -1.52504,-35.99139 -2.12917,-39 C 776.3639,393.96159 775.38186,389.025 774.78571,386 773.81448,381.07178 772.4584,375.5291 770.01479,366.5 748.83825,288.25293 679.9576,222.60907 598.5,203.04489 c -4.95,-1.18887 -9.9,-2.38611 -11,-2.66054 -7.80648,-1.94755 -36.18267,-4.69113 -45.5,-4.39922 -7.66369,0.2401 -30.3143,1.90821 -34,2.50394 -73.50579,11.88089 -135.47492,55.64278 -172.77385,122.01093 -7.67533,13.65717 -15.9101,33.32486 -19.25999,46 -2.91503,11.02978 -3.79717,14.64655 -4.81706,19.75 -2.97502,14.88675 -3.25003,16.85997 -5.1219,36.75 -1.84467,19.60101 -6.43057,26 -18.63315,26 -6.4892,0 -11.17479,-2.74153 -13.98999,-8.18553 -3.76968,-7.28975 0.66111,-48.18624 8.56131,-79.02142 C 306.49948,266.03415 392.46658,184.38059 488,166.09655 c 3.025,-0.57896 7.3,-1.28119 9.5,-1.56053 2.2,-0.27934 7.15,-1.0494 11,-1.71125 7.80459,-1.34167 54.305,-1.70403 64,-0.49872 5.68079,0.70625 8.62747,1.20269 22.25,3.74854 10.64322,1.98907 23.56987,5.3942 34.75,9.15382 89.19825,29.99535 156.20645,102.05135 176.94236,190.27159 5.1792,22.03474 5.62315,26.37543 6.03439,59 0.56375,44.72441 1.35929,48.61399 15.62239,76.38139 8.93437,17.39342 9.70853,21.32846 5.63029,28.61861 -3.9537,7.06754 -10.82011,9.54508 -18.72431,6.75609 z"
       id="path142"
       sodipodi:nodetypes="sssssssssssssssssssssssssssscssssssssssssssssssssssssssssssssssssscsssssssssssssssssssssssssssssssssssssssssssssssssssssssssssssssssssssssssssssssssssssssssssssssssss"
       inkscape:label="bevel" />
    <path
       style="display:inline;fill:url(#radialGradient27);fill-opacity:1"
       d="m 592.5,826.30839 c -14.98826,-7.78937 -57.08141,-47.20933 -65.19894,-61.05839 -3.1476,-5.37003 -4.34587,-5.32227 -12.54583,0.5 -3.67939,2.6125 -9.64424,6.775 -13.25523,9.25 -3.61099,2.475 -9.45143,6.525 -12.97877,9 -38.9021,27.29614 -45.60428,31 -56.0949,31 -7.96028,0 -11.40853,-1.999 -13.81259,-8.00734 -4.50374,-11.25596 -0.75466,-16.65958 21.03358,-30.31608 17.83196,-11.17678 42.04262,-27.92439 55.66788,-38.508 14.07968,-10.9366 20.40892,-14.13936 27.97464,-14.15591 8.63869,-0.0189 11.52579,2.03402 29.04875,20.65567 14.79647,15.7242 22.87694,23.54289 48.84084,47.25857 C 614.87277,804.43454 617,807.57299 617,815.26813 c 0,12.375 -11.74648,17.66823 -24.5,11.04026 z m 61.23182,-30.25915 C 622.63231,780.27665 571.1343,732.44466 540.09291,690.5 c -11.66873,-15.76735 -10.64456,-15.8987 -33.7783,4.332 -28.25021,24.70512 -86.08201,63.33024 -111.95136,74.7709 -10.59435,4.68532 -20.2594,2.44131 -24.39434,-5.66383 -5.50934,-10.79921 0.59334,-18.90491 25.10735,-33.34806 C 445.81827,700.69487 477.49497,677.56003 502,652.50005 513.79441,640.43854 525.56476,632 530.59414,632 c 8.01553,0 16.7613,7.21055 24.86475,20.5 8.23162,13.49966 15.75359,24.73772 20.41458,30.5 19.48013,24.08287 41.42952,45.18884 69.15742,66.5 2.86241,2.2 6.89851,5.35 8.96911,7 2.0706,1.65 6.17236,4.8 9.11502,7 2.94266,2.2 7.4956,6.07321 10.11764,8.60714 L 678,776.71429 v 5.99497 c 0,13.76558 -11.24314,19.94583 -24.26818,13.33998 z m 46.74799,-40.46596 C 675.96379,746.13977 621.41739,701.06279 596.31282,669.5 573.23017,640.47928 553.58381,603.1684 551.31984,584.05277 550.23301,574.87613 556.91252,567 565.78179,567 c 9.43216,0 13.08989,4.0505 23.06552,25.54232 11.63901,25.07546 14.28751,30.02171 21.57791,40.29817 21.55322,30.38118 53.71468,60.27554 91.07478,84.65481 23.68091,15.45294 27.11917,20.49022 21.50169,31.5014 -4.19745,8.22767 -12.19189,10.56567 -22.52188,6.58658 z M 336.69598,720.74624 c -5.7884,-3.59431 -7.68166,-7.16282 -7.68939,-14.49336 -0.008,-7.71572 3.50639,-12.25235 13.88923,-17.92851 78.55578,-42.94536 116.56783,-73.77499 146.23629,-118.60477 15.11058,-22.83247 26.52611,-47.56368 32.98923,-71.4696 0.48326,-1.7875 1.33517,-4.9375 1.89313,-7 2.03573,-7.52506 3.09596,-12.90777 3.98866,-20.25 2.32491,-19.12186 7.95348,-27.98507 17.77899,-27.99626 12.64642,-0.0144 18.47181,11.69591 15.14065,30.43606 -2.95677,16.63392 -4.81126,25.87692 -5.93088,29.5602 -0.41797,1.375 -1.32606,4.525 -2.01798,7 -16.15516,57.78681 -52.3755,111.25861 -102.10829,150.74167 -22.85012,18.14079 -37.19229,27.24147 -73.36562,46.55337 -31.32263,16.72226 -34.07499,17.62959 -40.80402,13.4512 z M 739.5,712.63118 C 732.61819,709.39773 692.60899,682.36372 681,673.10304 638.39179,639.11377 607.74055,593.96677 594.0282,545 c -0.69308,-2.475 -1.62001,-5.625 -2.05983,-7 -0.43982,-1.375 -1.10886,-4.075 -1.48676,-6 -0.3779,-1.925 -1.10015,-5.3 -1.605,-7.5 -3.33582,-14.5366 -4.76508,-28.47495 -5.84485,-57 -1.19467,-31.56025 -1.82087,-35.71615 -6.93741,-46.04176 -14.22997,-28.71726 -47.54257,-31.94576 -64.17051,-6.21911 -5.00686,7.74659 -7.07224,14.3189 -8.95965,28.51087 -4.66963,35.1122 -6.12788,41.26683 -16.11157,68 -15.78066,42.25561 -50.05075,82.68921 -96.35262,113.68172 -17.34316,11.60878 -69.31651,36.99778 -75.7268,36.99256 -8.26096,-0.007 -14.28504,-4.64128 -15.46228,-11.89574 -1.82077,-11.22007 3.75219,-17.04604 27.83258,-29.09623 38.20355,-19.11761 59.97659,-33.78865 82.22277,-55.40304 C 447.64623,528.83643 464.171,493.9667 470.98715,436 c 3.06974,-26.10607 8.97374,-39.21199 24.10119,-53.50074 23.99445,-22.66415 61.44392,-25.28029 88.23329,-6.1638 22.9073,16.34632 29.93179,34.34807 31.67131,81.16454 1.3515,36.37359 1.65287,39.71985 5.15616,57.25 13.04108,65.25644 55.30969,120.64318 122.98423,161.15258 21.66426,12.96804 26.06803,19.44927 20.91987,30.78875 -3.64367,8.02564 -14.51605,10.65586 -24.5532,5.93985 z m 33.83795,-51.46564 C 755.01678,653.78096 724.12175,632.31112 706.9677,615.04295 684.74681,592.67424 663.49749,556.20399 655.96098,527.5 c -3.08513,-11.75021 -3.78873,-14.61457 -4.78993,-19.5 -2.0229,-9.8709 -3.08115,-21.53693 -5.17057,-57 -2.36557,-40.14998 -8.28793,-59.43684 -24.45631,-79.64482 -29.31018,-36.63319 -78.91589,-49.2729 -119.23119,-30.38051 -30.23001,14.16626 -55.30844,46.54809 -60.42749,78.02533 -0.49195,3.025 -1.34246,7.75 -1.89003,10.5 -1.41425,7.10257 -2.75416,14.06544 -4.04117,21 -0.61246,3.3 -1.52773,8.1375 -2.03393,10.75 -0.5062,2.6125 -1.30494,6.8875 -1.77497,9.5 -5.71072,31.7406 -39.12045,74.27459 -78.14539,99.48705 -11.05314,7.14099 -53.1017,28.39593 -59.31465,29.9827 -12.50521,3.19379 -22.89744,-11.04658 -16.79176,-23.00959 2.72011,-5.32957 3.3657,-5.7673 27.56864,-18.69225 40.65212,-21.70919 56.81117,-34.6526 75.22413,-60.25456 10.94042,-15.21191 23.20435,-42.59016 23.29266,-51.999 0.0115,-1.22961 0.45586,-4.15461 0.98739,-6.5 0.53152,-2.34539 1.45837,-8.31435 2.05965,-13.26435 8.20572,-67.55286 42.65596,-107.99434 106.45619,-124.96995 10.23826,-2.72415 44.98032,-3.76538 53.40173,-1.60047 1.98881,0.51126 6.31602,1.49549 9.61602,2.18718 45.18043,9.46988 86.60941,51.51669 97.94359,99.40421 0.90851,3.83847 1.89052,7.87903 2.18225,8.97903 0.51562,1.94413 1.53871,13.88606 3.38408,39.5 2.58147,35.83109 3.08998,41.98145 3.92731,47.5 5.56204,36.6575 30.16374,79.40562 59.47878,103.35084 12.38051,10.1127 16.27667,12.90989 26.71246,19.17782 28.02958,16.83509 33.83293,24.28604 27.92914,35.85842 -4.1568,8.14801 -12.9447,10.02451 -24.71966,5.27846 z m 27.39989,-58.68786 C 759.28911,587.25842 722.4821,536.66615 714.17892,483.5 c -1.27421,-8.15895 -3.19835,-42.53758 -3.18685,-56.9398 0.0108,-13.59103 -2.42075,-27.53666 -7.68245,-44.0602 C 685.63472,326.99472 636.26036,282.11491 579,269.50629 c -4.125,-0.90832 -9.12721,-2.06882 -11.11602,-2.57889 -1.98881,-0.51007 -6.48881,-0.96025 -10,-1.0004 -3.51119,-0.0402 -8.78055,-0.41385 -11.7097,-0.83044 -16.84496,-2.39571 -49.64712,4.76934 -72.67428,15.87442 -53.29827,25.70362 -88.74763,73.2085 -97.40411,130.52902 -0.58142,3.85 -1.29592,8.575 -1.58778,10.5 -0.29186,1.925 -0.96444,6.65 -1.49463,10.5 -2.47362,17.96241 -5.08332,25.43905 -13.63183,39.05438 -14.9493,23.81 -41.94768,48.2878 -64.03324,58.05508 C 282.77848,535.16848 272,529.16558 272,516.60595 c 0,-9.2269 3.27927,-13.32772 19.63513,-24.55426 C 311.16843,478.64418 322.96308,466.32129 330.92707,451 335.87142,441.48795 341,424.83681 341,418.29584 c 0,-1.4715 0.43642,-5.17754 0.96983,-8.23564 0.5334,-3.05811 1.49534,-8.9352 2.13764,-13.0602 3.71401,-23.85246 15.32707,-53.09057 30.03695,-75.62385 C 417.51418,254.94033 500.99042,219.49221 580,233.95974 661.74097,248.92741 728.66306,314.84892 741.96183,393.5 c 0.65098,3.85 1.60088,9.43755 2.11089,12.41678 0.51,2.97923 0.92728,14.4335 0.92728,25.45393 0,49.43677 6.63581,74.93258 27.0194,103.81271 8.22551,11.65415 16.88844,19.62919 32.80463,30.19971 20.13857,13.37476 24.53485,20.96118 18.1822,31.37601 -4.13421,6.77782 -13.10765,9.0822 -22.26839,5.71854 z m 14.26728,-66.22159 c -7.29258,-2.57317 -14.04301,-10.51813 -20.95206,-24.65961 -12.21374,-24.9992 -13.61777,-32.09885 -14.95586,-75.62627 -0.56692,-18.44139 -1.52504,-35.99139 -2.12917,-39 C 776.3639,393.96159 775.38186,389.025 774.78571,386 773.81448,381.07178 772.4584,375.5291 770.01479,366.5 748.83825,288.25293 679.9576,222.60907 598.5,203.04489 c -4.95,-1.18887 -9.9,-2.38611 -11,-2.66054 -7.80648,-1.94755 -36.18267,-4.69113 -45.5,-4.39922 -7.66369,0.2401 -30.3143,1.90821 -34,2.50394 -73.50579,11.88089 -135.47492,55.64278 -172.77385,122.01093 -7.67533,13.65717 -15.9101,33.32486 -19.25999,46 -2.91503,11.02978 -3.79717,14.64655 -4.81706,19.75 -2.97502,14.88675 -3.25003,16.85997 -5.1219,36.75 -1.84467,19.60101 -6.43057,26 -18.63315,26 -6.4892,0 -11.17479,-2.74153 -13.98999,-8.18553 -3.76968,-7.28975 0.66111,-48.18624 8.56131,-79.02142 C 306.49948,266.03415 392.46658,184.38059 488,166.09655 c 3.025,-0.57896 7.3,-1.28119 9.5,-1.56053 2.2,-0.27934 7.15,-1.0494 11,-1.71125 7.80459,-1.34167 54.305,-1.70403 64,-0.49872 5.68079,0.70625 8.62747,1.20269 22.25,3.74854 10.64322,1.98907 23.56987,5.3942 34.75,9.15382 89.19825,29.99535 156.20645,102.05135 176.94236,190.27159 5.1792,22.03474 5.62315,26.37543 6.03439,59 0.56375,44.72441 1.35929,48.61399 15.62239,76.38139 8.93437,17.39342 9.70853,21.32846 5.63029,28.61861 -3.9537,7.06754 -10.82011,9.54508 -18.72431,6.75609 z"
       id="path25"
       sodipodi:nodetypes="sssssssssssssssssssssssssssscssssssssssssssssssssssssssssssssssssscsssssssssssssssssssssssssssssssssssssssssssssssssssssssssssssssssssssssssssssssssssssssssssssssssss" />
    <path
       style="display:inline;fill:url(#radialGradient29);fill-opacity:1"
       d="m 592.5,826.30839 c -14.98826,-7.78937 -57.08141,-47.20933 -65.19894,-61.05839 -3.1476,-5.37003 -4.34587,-5.32227 -12.54583,0.5 -3.67939,2.6125 -9.64424,6.775 -13.25523,9.25 -3.61099,2.475 -9.45143,6.525 -12.97877,9 -38.9021,27.29614 -45.60428,31 -56.0949,31 -7.96028,0 -11.40853,-1.999 -13.81259,-8.00734 -4.50374,-11.25596 -0.75466,-16.65958 21.03358,-30.31608 17.83196,-11.17678 42.04262,-27.92439 55.66788,-38.508 14.07968,-10.9366 20.40892,-14.13936 27.97464,-14.15591 8.63869,-0.0189 11.52579,2.03402 29.04875,20.65567 14.79647,15.7242 22.87694,23.54289 48.84084,47.25857 C 614.87277,804.43454 617,807.57299 617,815.26813 c 0,12.375 -11.74648,17.66823 -24.5,11.04026 z m 61.23182,-30.25915 C 622.63231,780.27665 571.1343,732.44466 540.09291,690.5 c -11.66873,-15.76735 -10.64456,-15.8987 -33.7783,4.332 -28.25021,24.70512 -86.08201,63.33024 -111.95136,74.7709 -10.59435,4.68532 -20.2594,2.44131 -24.39434,-5.66383 -5.50934,-10.79921 0.59334,-18.90491 25.10735,-33.34806 C 445.81827,700.69487 477.49497,677.56003 502,652.50005 513.79441,640.43854 525.56476,632 530.59414,632 c 8.01553,0 16.7613,7.21055 24.86475,20.5 8.23162,13.49966 15.75359,24.73772 20.41458,30.5 19.48013,24.08287 41.42952,45.18884 69.15742,66.5 2.86241,2.2 6.89851,5.35 8.96911,7 2.0706,1.65 6.17236,4.8 9.11502,7 2.94266,2.2 7.4956,6.07321 10.11764,8.60714 L 678,776.71429 v 5.99497 c 0,13.76558 -11.24314,19.94583 -24.26818,13.33998 z m 46.74799,-40.46596 C 675.96379,746.13977 621.41739,701.06279 596.31282,669.5 573.23017,640.47928 553.58381,603.1684 551.31984,584.05277 550.23301,574.87613 556.91252,567 565.78179,567 c 9.43216,0 13.08989,4.0505 23.06552,25.54232 11.63901,25.07546 14.28751,30.02171 21.57791,40.29817 21.55322,30.38118 53.71468,60.27554 91.07478,84.65481 23.68091,15.45294 27.11917,20.49022 21.50169,31.5014 -4.19745,8.22767 -12.19189,10.56567 -22.52188,6.58658 z M 336.69598,720.74624 c -5.7884,-3.59431 -7.68166,-7.16282 -7.68939,-14.49336 -0.008,-7.71572 3.50639,-12.25235 13.88923,-17.92851 78.55578,-42.94536 116.56783,-73.77499 146.23629,-118.60477 15.11058,-22.83247 26.52611,-47.56368 32.98923,-71.4696 0.48326,-1.7875 1.33517,-4.9375 1.89313,-7 2.03573,-7.52506 3.09596,-12.90777 3.98866,-20.25 2.32491,-19.12186 7.95348,-27.98507 17.77899,-27.99626 12.64642,-0.0144 18.47181,11.69591 15.14065,30.43606 -2.95677,16.63392 -4.81126,25.87692 -5.93088,29.5602 -0.41797,1.375 -1.32606,4.525 -2.01798,7 -16.15516,57.78681 -52.3755,111.25861 -102.10829,150.74167 -22.85012,18.14079 -37.19229,27.24147 -73.36562,46.55337 -31.32263,16.72226 -34.07499,17.62959 -40.80402,13.4512 z M 739.5,712.63118 C 732.61819,709.39773 692.60899,682.36372 681,673.10304 638.39179,639.11377 607.74055,593.96677 594.0282,545 c -0.69308,-2.475 -1.62001,-5.625 -2.05983,-7 -0.43982,-1.375 -1.10886,-4.075 -1.48676,-6 -0.3779,-1.925 -1.10015,-5.3 -1.605,-7.5 -3.33582,-14.5366 -4.76508,-28.47495 -5.84485,-57 -1.19467,-31.56025 -1.82087,-35.71615 -6.93741,-46.04176 -14.22997,-28.71726 -47.54257,-31.94576 -64.17051,-6.21911 -5.00686,7.74659 -7.07224,14.3189 -8.95965,28.51087 -4.66963,35.1122 -6.12788,41.26683 -16.11157,68 -15.78066,42.25561 -50.05075,82.68921 -96.35262,113.68172 -17.34316,11.60878 -69.31651,36.99778 -75.7268,36.99256 -8.26096,-0.007 -14.28504,-4.64128 -15.46228,-11.89574 -1.82077,-11.22007 3.75219,-17.04604 27.83258,-29.09623 38.20355,-19.11761 59.97659,-33.78865 82.22277,-55.40304 C 447.64623,528.83643 464.171,493.9667 470.98715,436 c 3.06974,-26.10607 8.97374,-39.21199 24.10119,-53.50074 23.99445,-22.66415 61.44392,-25.28029 88.23329,-6.1638 22.9073,16.34632 29.93179,34.34807 31.67131,81.16454 1.3515,36.37359 1.65287,39.71985 5.15616,57.25 13.04108,65.25644 55.30969,120.64318 122.98423,161.15258 21.66426,12.96804 26.06803,19.44927 20.91987,30.78875 -3.64367,8.02564 -14.51605,10.65586 -24.5532,5.93985 z m 33.83795,-51.46564 C 755.01678,653.78096 724.12175,632.31112 706.9677,615.04295 684.74681,592.67424 663.49749,556.20399 655.96098,527.5 c -3.08513,-11.75021 -3.78873,-14.61457 -4.78993,-19.5 -2.0229,-9.8709 -3.08115,-21.53693 -5.17057,-57 -2.36557,-40.14998 -8.28793,-59.43684 -24.45631,-79.64482 -29.31018,-36.63319 -78.91589,-49.2729 -119.23119,-30.38051 -30.23001,14.16626 -55.30844,46.54809 -60.42749,78.02533 -0.49195,3.025 -1.34246,7.75 -1.89003,10.5 -1.41425,7.10257 -2.75416,14.06544 -4.04117,21 -0.61246,3.3 -1.52773,8.1375 -2.03393,10.75 -0.5062,2.6125 -1.30494,6.8875 -1.77497,9.5 -5.71072,31.7406 -39.12045,74.27459 -78.14539,99.48705 -11.05314,7.14099 -53.1017,28.39593 -59.31465,29.9827 -12.50521,3.19379 -22.89744,-11.04658 -16.79176,-23.00959 2.72011,-5.32957 3.3657,-5.7673 27.56864,-18.69225 40.65212,-21.70919 56.81117,-34.6526 75.22413,-60.25456 10.94042,-15.21191 23.20435,-42.59016 23.29266,-51.999 0.0115,-1.22961 0.45586,-4.15461 0.98739,-6.5 0.53152,-2.34539 1.45837,-8.31435 2.05965,-13.26435 8.20572,-67.55286 42.65596,-107.99434 106.45619,-124.96995 10.23826,-2.72415 44.98032,-3.76538 53.40173,-1.60047 1.98881,0.51126 6.31602,1.49549 9.61602,2.18718 45.18043,9.46988 86.60941,51.51669 97.94359,99.40421 0.90851,3.83847 1.89052,7.87903 2.18225,8.97903 0.51562,1.94413 1.53871,13.88606 3.38408,39.5 2.58147,35.83109 3.08998,41.98145 3.92731,47.5 5.56204,36.6575 30.16374,79.40562 59.47878,103.35084 12.38051,10.1127 16.27667,12.90989 26.71246,19.17782 28.02958,16.83509 33.83293,24.28604 27.92914,35.85842 -4.1568,8.14801 -12.9447,10.02451 -24.71966,5.27846 z m 27.39989,-58.68786 C 759.28911,587.25842 722.4821,536.66615 714.17892,483.5 c -1.27421,-8.15895 -3.19835,-42.53758 -3.18685,-56.9398 0.0108,-13.59103 -2.42075,-27.53666 -7.68245,-44.0602 C 685.63472,326.99472 636.26036,282.11491 579,269.50629 c -4.125,-0.90832 -9.12721,-2.06882 -11.11602,-2.57889 -1.98881,-0.51007 -6.48881,-0.96025 -10,-1.0004 -3.51119,-0.0402 -8.78055,-0.41385 -11.7097,-0.83044 -16.84496,-2.39571 -49.64712,4.76934 -72.67428,15.87442 -53.29827,25.70362 -88.74763,73.2085 -97.40411,130.52902 -0.58142,3.85 -1.29592,8.575 -1.58778,10.5 -0.29186,1.925 -0.96444,6.65 -1.49463,10.5 -2.47362,17.96241 -5.08332,25.43905 -13.63183,39.05438 -14.9493,23.81 -41.94768,48.2878 -64.03324,58.05508 C 282.77848,535.16848 272,529.16558 272,516.60595 c 0,-9.2269 3.27927,-13.32772 19.63513,-24.55426 C 311.16843,478.64418 322.96308,466.32129 330.92707,451 335.87142,441.48795 341,424.83681 341,418.29584 c 0,-1.4715 0.43642,-5.17754 0.96983,-8.23564 0.5334,-3.05811 1.49534,-8.9352 2.13764,-13.0602 3.71401,-23.85246 15.32707,-53.09057 30.03695,-75.62385 C 417.51418,254.94033 500.99042,219.49221 580,233.95974 661.74097,248.92741 728.66306,314.84892 741.96183,393.5 c 0.65098,3.85 1.60088,9.43755 2.11089,12.41678 0.51,2.97923 0.92728,14.4335 0.92728,25.45393 0,49.43677 6.63581,74.93258 27.0194,103.81271 8.22551,11.65415 16.88844,19.62919 32.80463,30.19971 20.13857,13.37476 24.53485,20.96118 18.1822,31.37601 -4.13421,6.77782 -13.10765,9.0822 -22.26839,5.71854 z m 14.26728,-66.22159 c -7.29258,-2.57317 -14.04301,-10.51813 -20.95206,-24.65961 -12.21374,-24.9992 -13.61777,-32.09885 -14.95586,-75.62627 -0.56692,-18.44139 -1.52504,-35.99139 -2.12917,-39 C 776.3639,393.96159 775.38186,389.025 774.78571,386 773.81448,381.07178 772.4584,375.5291 770.01479,366.5 748.83825,288.25293 679.9576,222.60907 598.5,203.04489 c -4.95,-1.18887 -9.9,-2.38611 -11,-2.66054 -7.80648,-1.94755 -36.18267,-4.69113 -45.5,-4.39922 -7.66369,0.2401 -30.3143,1.90821 -34,2.50394 -73.50579,11.88089 -135.47492,55.64278 -172.77385,122.01093 -7.67533,13.65717 -15.9101,33.32486 -19.25999,46 -2.91503,11.02978 -3.79717,14.64655 -4.81706,19.75 -2.97502,14.88675 -3.25003,16.85997 -5.1219,36.75 -1.84467,19.60101 -6.43057,26 -18.63315,26 -6.4892,0 -11.17479,-2.74153 -13.98999,-8.18553 -3.76968,-7.28975 0.66111,-48.18624 8.56131,-79.02142 C 306.49948,266.03415 392.46658,184.38059 488,166.09655 c 3.025,-0.57896 7.3,-1.28119 9.5,-1.56053 2.2,-0.27934 7.15,-1.0494 11,-1.71125 7.80459,-1.34167 54.305,-1.70403 64,-0.49872 5.68079,0.70625 8.62747,1.20269 22.25,3.74854 10.64322,1.98907 23.56987,5.3942 34.75,9.15382 89.19825,29.99535 156.20645,102.05135 176.94236,190.27159 5.1792,22.03474 5.62315,26.37543 6.03439,59 0.56375,44.72441 1.35929,48.61399 15.62239,76.38139 8.93437,17.39342 9.70853,21.32846 5.63029,28.61861 -3.9537,7.06754 -10.82011,9.54508 -18.72431,6.75609 z"
       id="path27"
       sodipodi:nodetypes="sssssssssssssssssssssssssssscssssssssssssssssssssssssssssssssssssscsssssssssssssssssssssssssssssssssssssssssssssssssssssssssssssssssssssssssssssssssssssssssssssssssss" />
  </g>
</svg>
